<svg xmlns="http://www.w3.org/2000/svg" xmlns:xlink="http://www.w3.org/1999/xlink" width="500" zoomAndPan="magnify" viewBox="0 0 375 374.999991" height="500" preserveAspectRatio="xMidYMid meet" version="1.0"><defs><g/><clipPath id="1afa6d26aa"><path d="M 5.894531 79.570312 L 135.644531 79.570312 L 135.644531 224.320312 L 5.894531 224.320312 Z M 5.894531 79.570312 " clip-rule="nonzero"/></clipPath></defs><g fill="#000000" fill-opacity="1"><g transform="translate(135.790776, 218.8984)"><g><path d="M 155.828125 -62.4375 L 55.703125 -62.4375 C 55.703125 -52.75 58.84375 -45.570312 65.125 -40.90625 C 71.40625 -36.238281 78.222656 -33.90625 85.578125 -33.90625 C 93.296875 -33.90625 99.394531 -34.9375 103.875 -37 C 108.363281 -39.0625 113.476562 -43.144531 119.21875 -49.25 L 153.671875 -32.03125 C 139.316406 -7.988281 115.453125 4.03125 82.078125 4.03125 C 61.265625 4.03125 43.410156 -3.097656 28.515625 -17.359375 C 13.628906 -31.617188 6.1875 -48.796875 6.1875 -68.890625 C 6.1875 -88.984375 13.628906 -106.207031 28.515625 -120.5625 C 43.410156 -134.914062 61.265625 -142.09375 82.078125 -142.09375 C 103.972656 -142.09375 121.78125 -135.769531 135.5 -123.125 C 149.226562 -110.476562 156.09375 -92.398438 156.09375 -68.890625 C 156.09375 -65.660156 156.003906 -63.507812 155.828125 -62.4375 Z M 57.046875 -88.8125 L 109.53125 -88.8125 C 108.457031 -95.988281 105.628906 -101.503906 101.046875 -105.359375 C 96.472656 -109.222656 90.597656 -111.15625 83.421875 -111.15625 C 75.535156 -111.15625 69.257812 -109.085938 64.59375 -104.953125 C 59.925781 -100.828125 57.410156 -95.445312 57.046875 -88.8125 Z M 57.046875 -88.8125 "/></g></g></g><g fill="#000000" fill-opacity="1"><g transform="translate(272.760733, 218.8984)"><g><path d="M 24.21875 -138.0625 L 24.21875 -189.46875 L 71.859375 -189.46875 L 71.859375 -138.0625 L 100.921875 -138.0625 L 100.921875 -101.734375 L 71.859375 -101.734375 L 71.859375 -57.859375 C 71.859375 -45.117188 75.445312 -38.75 82.625 -38.75 C 84.414062 -38.75 86.296875 -39.109375 88.265625 -39.828125 C 90.242188 -40.546875 91.769531 -41.265625 92.84375 -41.984375 L 94.46875 -43.0625 L 106.296875 -4.578125 C 96.078125 1.160156 84.414062 4.03125 71.3125 4.03125 C 62.34375 4.03125 54.628906 2.460938 48.171875 -0.671875 C 41.710938 -3.804688 36.820312 -8.019531 33.5 -13.3125 C 30.1875 -18.613281 27.8125 -24.175781 26.375 -30 C 24.9375 -35.832031 24.21875 -42.070312 24.21875 -48.71875 L 24.21875 -101.734375 L 4.3125 -101.734375 L 4.3125 -138.0625 Z M 24.21875 -138.0625 "/></g></g></g><g clip-path="url(#1afa6d26aa)"><path fill="#000000" d="M 70.617188 115.945312 C 72.824219 116.800781 77.765625 117.230469 79.746094 115.671875 C 82.152344 113.785156 79.042969 109.335938 75.882812 107.25 C 72.925781 109.6875 71.21875 112.605469 70.617188 115.945312 Z M 135.605469 129.171875 C 135.605469 101.894531 113.34375 79.570312 86.136719 79.570312 L 10.015625 79.570312 C 8.636719 79.570312 7.285156 79.621094 5.929688 79.746094 L 5.929688 111.800781 C 7.15625 110.367188 8.613281 109.335938 10.34375 108.832031 C 20.296875 105.917969 23.980469 116.777344 21.273438 125.425781 C 16.433594 141.011719 27.339844 142.191406 37.621094 134.574219 C 48.078125 126.832031 53.792969 115.746094 52.316406 97.722656 C 56.800781 98.023438 61.316406 97.597656 65.753906 98.023438 C 74.605469 98.878906 79.417969 102.75 85.359375 109.914062 C 89.148438 114.515625 91.304688 116.148438 93.835938 117.003906 C 100.453125 119.242188 122.667969 121.503906 125 127.058594 C 126.378906 130.351562 124.097656 132.738281 120.738281 134.875 C 116.402344 148.601562 108.878906 152.800781 95.992188 155.039062 C 71.34375 159.335938 46.171875 164.816406 28.695312 178.746094 C 16.183594 188.722656 7.585938 203.027344 5.929688 224.320312 L 36.46875 224.320312 C 36.84375 196.644531 57.253906 185.933594 80.722656 180.730469 C 108.429688 174.597656 135.605469 166.804688 135.605469 129.171875 Z M 135.605469 129.171875 " fill-opacity="1" fill-rule="evenodd"/></g><g fill="#000000" fill-opacity="1"><g transform="translate(33.277458, 261.097228)"><g><path d="M 15.25 -1.515625 C 15.300781 -1.367188 15.328125 -1.21875 15.328125 -1.0625 C 15.328125 -0.726562 15.210938 -0.453125 14.984375 -0.234375 C 14.765625 -0.0234375 14.507812 0.078125 14.21875 0.078125 C 13.988281 0.078125 13.78125 0.0078125 13.59375 -0.125 C 13.40625 -0.269531 13.253906 -0.46875 13.140625 -0.71875 L 11.625 -4.328125 L 4.03125 -4.328125 L 2.53125 -0.6875 C 2.445312 -0.4375 2.3125 -0.242188 2.125 -0.109375 C 1.9375 0.015625 1.726562 0.078125 1.5 0.078125 C 1.15625 0.078125 0.890625 -0.0078125 0.703125 -0.1875 C 0.523438 -0.375 0.4375 -0.625 0.4375 -0.9375 C 0.4375 -1 0.453125 -1.128906 0.484375 -1.328125 L 6.75 -16.5 C 6.863281 -16.769531 7.023438 -16.972656 7.234375 -17.109375 C 7.441406 -17.242188 7.675781 -17.296875 7.9375 -17.265625 C 8.175781 -17.265625 8.394531 -17.195312 8.59375 -17.0625 C 8.789062 -16.9375 8.929688 -16.75 9.015625 -16.5 Z M 4.96875 -6.5625 L 10.6875 -6.5625 L 7.8125 -13.4375 Z M 4.96875 -6.5625 "/></g></g></g><g fill="#000000" fill-opacity="1"><g transform="translate(65.048321, 261.097228)"><g><path d="M 14.890625 -17.1875 C 15.203125 -17.1875 15.453125 -17.082031 15.640625 -16.875 C 15.835938 -16.675781 15.9375 -16.421875 15.9375 -16.109375 L 15.9375 -1.203125 C 15.9375 -0.859375 15.828125 -0.570312 15.609375 -0.34375 C 15.390625 -0.113281 15.109375 0 14.765625 0 C 14.578125 0 14.394531 -0.0234375 14.21875 -0.078125 C 14.050781 -0.140625 13.921875 -0.226562 13.828125 -0.34375 L 4.171875 -12.921875 L 4.171875 -1.078125 C 4.171875 -0.765625 4.066406 -0.503906 3.859375 -0.296875 C 3.660156 -0.0976562 3.40625 0 3.09375 0 C 2.78125 0 2.523438 -0.0976562 2.328125 -0.296875 C 2.128906 -0.503906 2.03125 -0.765625 2.03125 -1.078125 L 2.03125 -16.015625 C 2.03125 -16.359375 2.140625 -16.640625 2.359375 -16.859375 C 2.585938 -17.078125 2.863281 -17.1875 3.1875 -17.1875 C 3.382812 -17.1875 3.570312 -17.148438 3.75 -17.078125 C 3.9375 -17.003906 4.078125 -16.90625 4.171875 -16.78125 L 13.796875 -4.171875 L 13.796875 -16.109375 C 13.796875 -16.421875 13.898438 -16.675781 14.109375 -16.875 C 14.316406 -17.082031 14.578125 -17.1875 14.890625 -17.1875 Z M 14.890625 -17.1875 "/></g></g></g><g fill="#000000" fill-opacity="1"><g transform="translate(99.028235, 261.097228)"><g><path d="M 4.46875 -1.203125 C 4.46875 -0.859375 4.34375 -0.570312 4.09375 -0.34375 C 3.851562 -0.113281 3.570312 0 3.25 0 C 2.882812 0 2.585938 -0.113281 2.359375 -0.34375 C 2.140625 -0.570312 2.03125 -0.859375 2.03125 -1.203125 L 2.03125 -16.015625 C 2.03125 -16.335938 2.144531 -16.613281 2.375 -16.84375 C 2.601562 -17.070312 2.898438 -17.1875 3.265625 -17.1875 C 3.597656 -17.1875 3.878906 -17.070312 4.109375 -16.84375 C 4.347656 -16.613281 4.46875 -16.335938 4.46875 -16.015625 Z M 4.46875 -1.203125 "/></g></g></g><g fill="#000000" fill-opacity="1"><g transform="translate(121.545706, 261.097228)"><g><path d="M 16.96875 -17.21875 C 17.300781 -17.195312 17.582031 -17.078125 17.8125 -16.859375 C 18.039062 -16.640625 18.15625 -16.367188 18.15625 -16.046875 L 18.15625 -1.171875 C 18.15625 -0.847656 18.039062 -0.570312 17.8125 -0.34375 C 17.59375 -0.113281 17.304688 0 16.953125 0 C 16.585938 0 16.289062 -0.109375 16.0625 -0.328125 C 15.832031 -0.546875 15.71875 -0.828125 15.71875 -1.171875 L 15.71875 -12.546875 L 10.953125 -5.328125 C 10.835938 -5.179688 10.691406 -5.054688 10.515625 -4.953125 C 10.347656 -4.859375 10.175781 -4.820312 10 -4.84375 C 9.832031 -4.820312 9.660156 -4.859375 9.484375 -4.953125 C 9.316406 -5.054688 9.175781 -5.179688 9.0625 -5.328125 L 4.28125 -12.765625 L 4.28125 -1.171875 C 4.28125 -0.828125 4.175781 -0.546875 3.96875 -0.328125 C 3.757812 -0.109375 3.484375 0 3.140625 0 C 2.816406 0 2.550781 -0.109375 2.34375 -0.328125 C 2.132812 -0.546875 2.03125 -0.828125 2.03125 -1.171875 L 2.03125 -16.046875 C 2.03125 -16.347656 2.144531 -16.617188 2.375 -16.859375 C 2.601562 -17.097656 2.894531 -17.21875 3.25 -17.21875 C 3.4375 -17.21875 3.625 -17.164062 3.8125 -17.0625 C 4.007812 -16.96875 4.164062 -16.835938 4.28125 -16.671875 L 10.09375 -7.859375 L 15.984375 -16.671875 C 16.253906 -17.035156 16.582031 -17.21875 16.96875 -17.21875 Z M 16.96875 -17.21875 "/></g></g></g><g fill="#000000" fill-opacity="1"><g transform="translate(157.734642, 261.097228)"><g><path d="M 15.25 -1.515625 C 15.300781 -1.367188 15.328125 -1.21875 15.328125 -1.0625 C 15.328125 -0.726562 15.210938 -0.453125 14.984375 -0.234375 C 14.765625 -0.0234375 14.507812 0.078125 14.21875 0.078125 C 13.988281 0.078125 13.78125 0.0078125 13.59375 -0.125 C 13.40625 -0.269531 13.253906 -0.46875 13.140625 -0.71875 L 11.625 -4.328125 L 4.03125 -4.328125 L 2.53125 -0.6875 C 2.445312 -0.4375 2.3125 -0.242188 2.125 -0.109375 C 1.9375 0.015625 1.726562 0.078125 1.5 0.078125 C 1.15625 0.078125 0.890625 -0.0078125 0.703125 -0.1875 C 0.523438 -0.375 0.4375 -0.625 0.4375 -0.9375 C 0.4375 -1 0.453125 -1.128906 0.484375 -1.328125 L 6.75 -16.5 C 6.863281 -16.769531 7.023438 -16.972656 7.234375 -17.109375 C 7.441406 -17.242188 7.675781 -17.296875 7.9375 -17.265625 C 8.175781 -17.265625 8.394531 -17.195312 8.59375 -17.0625 C 8.789062 -16.9375 8.929688 -16.75 9.015625 -16.5 Z M 4.96875 -6.5625 L 10.6875 -6.5625 L 7.8125 -13.4375 Z M 4.96875 -6.5625 "/></g></g></g><g fill="#000000" fill-opacity="1"><g transform="translate(189.505506, 261.097228)"><g><path d="M 11.515625 -2.28125 C 11.859375 -2.28125 12.140625 -2.171875 12.359375 -1.953125 C 12.585938 -1.742188 12.703125 -1.46875 12.703125 -1.125 C 12.703125 -0.800781 12.585938 -0.53125 12.359375 -0.3125 C 12.140625 -0.101562 11.859375 0 11.515625 0 L 3.21875 0 C 2.875 0 2.585938 -0.113281 2.359375 -0.34375 C 2.140625 -0.570312 2.03125 -0.847656 2.03125 -1.171875 L 2.03125 -16.015625 C 2.03125 -16.335938 2.144531 -16.613281 2.375 -16.84375 C 2.601562 -17.070312 2.898438 -17.1875 3.265625 -17.1875 C 3.597656 -17.1875 3.878906 -17.070312 4.109375 -16.84375 C 4.347656 -16.613281 4.46875 -16.335938 4.46875 -16.015625 L 4.46875 -2.28125 Z M 11.515625 -2.28125 "/></g></g></g><g fill="#000000" fill-opacity="1"><g transform="translate(219.018262, 261.097228)"><g/></g></g><g fill="#000000" fill-opacity="1"><g transform="translate(241.830267, 261.097228)"><g><path d="M 14.296875 -16.1875 C 14.691406 -15.976562 14.890625 -15.648438 14.890625 -15.203125 C 14.890625 -14.910156 14.789062 -14.640625 14.59375 -14.390625 C 14.394531 -14.128906 14.125 -14 13.78125 -14 C 13.550781 -14 13.328125 -14.054688 13.109375 -14.171875 C 12.097656 -14.742188 11.003906 -15.03125 9.828125 -15.03125 C 8.597656 -15.03125 7.507812 -14.757812 6.5625 -14.21875 C 5.625 -13.675781 4.894531 -12.914062 4.375 -11.9375 C 3.851562 -10.96875 3.59375 -9.851562 3.59375 -8.59375 C 3.59375 -7.238281 3.859375 -6.066406 4.390625 -5.078125 C 4.929688 -4.097656 5.675781 -3.347656 6.625 -2.828125 C 7.582031 -2.316406 8.648438 -2.0625 9.828125 -2.0625 C 11.035156 -2.0625 12.128906 -2.359375 13.109375 -2.953125 C 13.304688 -3.046875 13.519531 -3.09375 13.75 -3.09375 C 14.113281 -3.09375 14.398438 -2.953125 14.609375 -2.671875 C 14.804688 -2.429688 14.90625 -2.171875 14.90625 -1.890625 C 14.90625 -1.691406 14.851562 -1.503906 14.75 -1.328125 C 14.644531 -1.160156 14.5 -1.03125 14.3125 -0.9375 C 13.675781 -0.570312 12.960938 -0.28125 12.171875 -0.0625 C 11.378906 0.144531 10.597656 0.25 9.828125 0.25 C 8.234375 0.25 6.769531 -0.0976562 5.4375 -0.796875 C 4.101562 -1.503906 3.039062 -2.53125 2.25 -3.875 C 1.457031 -5.21875 1.0625 -6.789062 1.0625 -8.59375 C 1.0625 -10.25 1.441406 -11.742188 2.203125 -13.078125 C 2.960938 -14.410156 4.007812 -15.457031 5.34375 -16.21875 C 6.675781 -16.976562 8.171875 -17.359375 9.828125 -17.359375 C 11.410156 -17.359375 12.898438 -16.96875 14.296875 -16.1875 Z M 14.296875 -16.1875 "/></g></g></g><g fill="#000000" fill-opacity="1"><g transform="translate(273.502961, 261.097228)"><g><path d="M 15.25 -1.515625 C 15.300781 -1.367188 15.328125 -1.21875 15.328125 -1.0625 C 15.328125 -0.726562 15.210938 -0.453125 14.984375 -0.234375 C 14.765625 -0.0234375 14.507812 0.078125 14.21875 0.078125 C 13.988281 0.078125 13.78125 0.0078125 13.59375 -0.125 C 13.40625 -0.269531 13.253906 -0.46875 13.140625 -0.71875 L 11.625 -4.328125 L 4.03125 -4.328125 L 2.53125 -0.6875 C 2.445312 -0.4375 2.3125 -0.242188 2.125 -0.109375 C 1.9375 0.015625 1.726562 0.078125 1.5 0.078125 C 1.15625 0.078125 0.890625 -0.0078125 0.703125 -0.1875 C 0.523438 -0.375 0.4375 -0.625 0.4375 -0.9375 C 0.4375 -1 0.453125 -1.128906 0.484375 -1.328125 L 6.75 -16.5 C 6.863281 -16.769531 7.023438 -16.972656 7.234375 -17.109375 C 7.441406 -17.242188 7.675781 -17.296875 7.9375 -17.265625 C 8.175781 -17.265625 8.394531 -17.195312 8.59375 -17.0625 C 8.789062 -16.9375 8.929688 -16.75 9.015625 -16.5 Z M 4.96875 -6.5625 L 10.6875 -6.5625 L 7.8125 -13.4375 Z M 4.96875 -6.5625 "/></g></g></g><g fill="#000000" fill-opacity="1"><g transform="translate(305.273839, 261.097228)"><g><path d="M 15.125 -1.96875 C 15.289062 -1.851562 15.421875 -1.707031 15.515625 -1.53125 C 15.617188 -1.363281 15.671875 -1.1875 15.671875 -1 C 15.671875 -0.65625 15.554688 -0.398438 15.328125 -0.234375 C 15.109375 -0.078125 14.847656 0 14.546875 0 C 14.234375 0 13.96875 -0.0664062 13.75 -0.203125 C 13.257812 -0.472656 12.859375 -0.921875 12.546875 -1.546875 C 12.234375 -2.171875 12.078125 -3.085938 12.078125 -4.296875 C 12.078125 -5.117188 11.832031 -5.722656 11.34375 -6.109375 C 10.851562 -6.503906 10.21875 -6.703125 9.4375 -6.703125 L 4.46875 -6.703125 L 4.46875 -1.171875 C 4.46875 -0.828125 4.367188 -0.546875 4.171875 -0.328125 C 3.972656 -0.109375 3.722656 0 3.421875 0 C 3.035156 0 2.707031 -0.113281 2.4375 -0.34375 C 2.164062 -0.570312 2.03125 -0.847656 2.03125 -1.171875 L 2.03125 -16.015625 C 2.03125 -16.335938 2.144531 -16.613281 2.375 -16.84375 C 2.601562 -17.070312 2.882812 -17.1875 3.21875 -17.1875 L 10.125 -17.1875 C 11.007812 -17.1875 11.816406 -16.96875 12.546875 -16.53125 C 13.285156 -16.101562 13.875 -15.507812 14.3125 -14.75 C 14.757812 -13.988281 14.984375 -13.132812 14.984375 -12.1875 C 14.984375 -11.269531 14.738281 -10.410156 14.25 -9.609375 C 13.757812 -8.816406 13.128906 -8.222656 12.359375 -7.828125 C 12.960938 -7.523438 13.4375 -7.09375 13.78125 -6.53125 C 14.132812 -5.976562 14.332031 -5.332031 14.375 -4.59375 C 14.4375 -3.65625 14.507812 -3.019531 14.59375 -2.6875 C 14.675781 -2.351562 14.851562 -2.113281 15.125 -1.96875 Z M 10.078125 -8.75 C 10.484375 -8.78125 10.867188 -8.941406 11.234375 -9.234375 C 11.609375 -9.523438 11.910156 -9.921875 12.140625 -10.421875 C 12.367188 -10.921875 12.484375 -11.484375 12.484375 -12.109375 C 12.484375 -12.890625 12.238281 -13.554688 11.75 -14.109375 C 11.269531 -14.660156 10.6875 -14.9375 10 -14.9375 L 4.46875 -14.9375 L 4.46875 -8.75 Z M 10.078125 -8.75 "/></g></g></g><g fill="#000000" fill-opacity="1"><g transform="translate(337.977404, 261.097228)"><g><path d="M 11.765625 -2.265625 C 12.109375 -2.265625 12.390625 -2.148438 12.609375 -1.921875 C 12.828125 -1.691406 12.9375 -1.421875 12.9375 -1.109375 C 12.9375 -0.773438 12.828125 -0.503906 12.609375 -0.296875 C 12.390625 -0.0976562 12.109375 0 11.765625 0 L 3.21875 0 C 2.882812 0 2.601562 -0.113281 2.375 -0.34375 C 2.144531 -0.570312 2.03125 -0.847656 2.03125 -1.171875 L 2.03125 -16.015625 C 2.03125 -16.335938 2.144531 -16.613281 2.375 -16.84375 C 2.601562 -17.070312 2.882812 -17.1875 3.21875 -17.1875 L 11.765625 -17.1875 C 12.109375 -17.1875 12.390625 -17.082031 12.609375 -16.875 C 12.828125 -16.664062 12.9375 -16.390625 12.9375 -16.046875 C 12.9375 -15.710938 12.828125 -15.441406 12.609375 -15.234375 C 12.390625 -15.035156 12.109375 -14.9375 11.765625 -14.9375 L 4.46875 -14.9375 L 4.46875 -9.921875 L 10.65625 -9.921875 C 11 -9.921875 11.28125 -9.8125 11.5 -9.59375 C 11.726562 -9.382812 11.84375 -9.117188 11.84375 -8.796875 C 11.84375 -8.453125 11.726562 -8.179688 11.5 -7.984375 C 11.28125 -7.785156 11 -7.6875 10.65625 -7.6875 L 4.46875 -7.6875 L 4.46875 -2.265625 Z M 11.765625 -2.265625 "/></g></g></g></svg>